<svg width="40" height="40" viewBox="0 0 40 40" fill="none" xmlns="http://www.w3.org/2000/svg">
<path d="M14.0002 28.3335L20.0002 22.3335L26.0002 28.3335L28.3335 26.0002L22.3335 20.0002L28.3335 14.0002L26.0002 11.6668L20.0002 17.6668L14.0002 11.6668L11.6668 14.0002L17.6668 20.0002L11.6668 26.0002L14.0002 28.3335ZM20.0002 36.6668C17.6946 36.6668 15.5279 36.2291 13.5002 35.3535C11.4724 34.4779 9.7085 33.2907 8.2085 31.7918C6.7085 30.2929 5.52128 28.5291 4.64683 26.5002C3.77239 24.4713 3.33461 22.3046 3.3335 20.0002C3.33239 17.6957 3.77016 15.5291 4.64683 13.5002C5.5235 11.4713 6.71072 9.70739 8.2085 8.2085C9.70628 6.70961 11.4702 5.52239 13.5002 4.64683C15.5302 3.77127 17.6968 3.3335 20.0002 3.3335C22.3035 3.3335 24.4702 3.77127 26.5002 4.64683C28.5302 5.52239 30.2941 6.70961 31.7918 8.2085C33.2896 9.70739 34.4774 11.4713 35.3552 13.5002C36.2329 15.5291 36.6702 17.6957 36.6668 20.0002C36.6635 22.3046 36.2257 24.4713 35.3535 26.5002C34.4813 28.5291 33.2941 30.2929 31.7918 31.7918C30.2896 33.2907 28.5257 34.4785 26.5002 35.3552C24.4746 36.2318 22.3079 36.6691 20.0002 36.6668ZM20.0002 33.3335C23.7224 33.3335 26.8752 32.0418 29.4585 29.4585C32.0418 26.8752 33.3335 23.7224 33.3335 20.0002C33.3335 16.2779 32.0418 13.1252 29.4585 10.5418C26.8752 7.9585 23.7224 6.66683 20.0002 6.66683C16.2779 6.66683 13.1252 7.9585 10.5418 10.5418C7.9585 13.1252 6.66683 16.2779 6.66683 20.0002C6.66683 23.7224 7.9585 26.8752 10.5418 29.4585C13.1252 32.0418 16.2779 33.3335 20.0002 33.3335Z" fill="#F24822"/>
</svg>
