<svg width="233" height="61" viewBox="0 0 233 61" fill="none" xmlns="http://www.w3.org/2000/svg">
<g filter="url(#filter0_i_1687_129)">
<circle cx="92.5" cy="30.5" r="12.5" fill="white"/>
<path d="M12.6 26.55H28.85V33.95H12.6V26.55ZM13.3 40.35H31.6V48H3.5V13H30.95V20.65H13.3V40.35ZM47.3555 48L32.4055 13H43.1055L55.7055 43.3H49.4055L62.3055 13H72.1055L57.1055 48H47.3555ZM91.3648 48.7C88.5648 48.7 85.9815 48.25 83.6148 47.35C81.2482 46.45 79.1815 45.1833 77.4148 43.55C75.6815 41.8833 74.3315 39.95 73.3648 37.75C72.3982 35.55 71.9148 33.1333 71.9148 30.5C71.9148 27.8667 72.3982 25.45 73.3648 23.25C74.3315 21.05 75.6815 19.1333 77.4148 17.5C79.1815 15.8333 81.2482 14.55 83.6148 13.65C85.9815 12.75 88.5648 12.3 91.3648 12.3C94.1982 12.3 96.7815 12.75 99.1148 13.65C101.482 14.55 103.532 15.8333 105.265 17.5C106.998 19.1333 108.348 21.05 109.315 23.25C110.315 25.45 110.815 27.8667 110.815 30.5C110.815 33.1333 110.315 35.5667 109.315 37.8C108.348 40 106.998 41.9167 105.265 43.55C103.532 45.1833 101.482 46.45 99.1148 47.35C96.7815 48.25 94.1982 48.7 91.3648 48.7ZM91.3648 40.5C92.6982 40.5 93.9315 40.2667 95.0648 39.8C96.2315 39.3333 97.2315 38.6667 98.0648 37.8C98.9315 36.9 99.5982 35.8333 100.065 34.6C100.565 33.3667 100.815 32 100.815 30.5C100.815 28.9667 100.565 27.6 100.065 26.4C99.5982 25.1667 98.9315 24.1167 98.0648 23.25C97.2315 22.35 96.2315 21.6667 95.0648 21.2C93.9315 20.7333 92.6982 20.5 91.3648 20.5C90.0315 20.5 88.7815 20.7333 87.6148 21.2C86.4815 21.6667 85.4815 22.35 84.6148 23.25C83.7815 24.1167 83.1148 25.1667 82.6148 26.4C82.1482 27.6 81.9148 28.9667 81.9148 30.5C81.9148 32 82.1482 33.3667 82.6148 34.6C83.1148 35.8333 83.7815 36.9 84.6148 37.8C85.4815 38.6667 86.4815 39.3333 87.6148 39.8C88.7815 40.2667 90.0315 40.5 91.3648 40.5ZM116 48V13H132C135.2 13 137.95 13.5167 140.25 14.55C142.583 15.5833 144.383 17.0833 145.65 19.05C146.917 20.9833 147.55 23.2833 147.55 25.95C147.55 28.5833 146.917 30.8667 145.65 32.8C144.383 34.7 142.583 36.1667 140.25 37.2C137.95 38.2 135.2 38.7 132 38.7H121.5L125.9 34.55V48H116ZM137.65 48L128.95 35.25H139.5L148.25 48H137.65ZM125.9 35.6L121.5 31.05H131.4C133.467 31.05 135 30.6 136 29.7C137.033 28.8 137.55 27.55 137.55 25.95C137.55 24.3167 137.033 23.05 136 22.15C135 21.25 133.467 20.8 131.4 20.8H121.5L125.9 16.25V35.6ZM153.012 48V13H162.912V48H153.012ZM182.255 48.7C179.388 48.7 176.622 48.35 173.955 47.65C171.322 46.9167 169.172 45.9833 167.505 44.85L170.755 37.55C172.322 38.55 174.122 39.3833 176.155 40.05C178.222 40.6833 180.272 41 182.305 41C183.672 41 184.772 40.8833 185.605 40.65C186.438 40.3833 187.038 40.05 187.405 39.65C187.805 39.2167 188.005 38.7167 188.005 38.15C188.005 37.35 187.638 36.7167 186.905 36.25C186.172 35.7833 185.222 35.4 184.055 35.1C182.888 34.8 181.588 34.5 180.155 34.2C178.755 33.9 177.338 33.5167 175.905 33.05C174.505 32.5833 173.222 31.9833 172.055 31.25C170.888 30.4833 169.938 29.5 169.205 28.3C168.472 27.0667 168.105 25.5167 168.105 23.65C168.105 21.55 168.672 19.65 169.805 17.95C170.972 16.25 172.705 14.8833 175.005 13.85C177.305 12.8167 180.172 12.3 183.605 12.3C185.905 12.3 188.155 12.5667 190.355 13.1C192.588 13.6 194.572 14.35 196.305 15.35L193.255 22.7C191.588 21.8 189.938 21.1333 188.305 20.7C186.672 20.2333 185.088 20 183.555 20C182.188 20 181.088 20.15 180.255 20.45C179.422 20.7167 178.822 21.0833 178.455 21.55C178.088 22.0167 177.905 22.55 177.905 23.15C177.905 23.9167 178.255 24.5333 178.955 25C179.688 25.4333 180.638 25.8 181.805 26.1C183.005 26.3667 184.305 26.65 185.705 26.95C187.138 27.25 188.555 27.6333 189.955 28.1C191.388 28.5333 192.688 29.1333 193.855 29.9C195.022 30.6333 195.955 31.6167 196.655 32.85C197.388 34.05 197.755 35.5667 197.755 37.4C197.755 39.4333 197.172 41.3167 196.005 43.05C194.872 44.75 193.155 46.1167 190.855 47.15C188.588 48.1833 185.722 48.7 182.255 48.7ZM211.428 26.55H227.678V33.95H211.428V26.55ZM212.128 40.35H230.428V48H202.328V13H229.778V20.65H212.128V40.35Z" fill="white"/>
</g>
<defs>
<filter id="filter0_i_1687_129" x="3.5" y="12.2998" width="226.928" height="39.4004" filterUnits="userSpaceOnUse" color-interpolation-filters="sRGB">
<feFlood flood-opacity="0" result="BackgroundImageFix"/>
<feBlend mode="normal" in="SourceGraphic" in2="BackgroundImageFix" result="shape"/>
<feColorMatrix in="SourceAlpha" type="matrix" values="0 0 0 0 0 0 0 0 0 0 0 0 0 0 0 0 0 0 127 0" result="hardAlpha"/>
<feOffset dy="3"/>
<feGaussianBlur stdDeviation="2"/>
<feComposite in2="hardAlpha" operator="arithmetic" k2="-1" k3="1"/>
<feColorMatrix type="matrix" values="0 0 0 0 0 0 0 0 0 0 0 0 0 0 0 0 0 0 0.25 0"/>
<feBlend mode="normal" in2="shape" result="effect1_innerShadow_1687_129"/>
</filter>
</defs>
</svg>
