<svg width="104" height="104" viewBox="0 0 104 104" fill="none" xmlns="http://www.w3.org/2000/svg">
<path d="M92.7158 49.764C91.8264 49.0109 90.6866 48.6192 89.5221 48.6665C88.3577 48.7139 87.2534 49.1968 86.4281 50.0197L86.4238 50.024C85.608 50.8519 85.1277 51.9526 85.0757 53.1137C85.0237 54.2749 85.4036 55.4141 86.1421 56.3117L86.1551 56.3247L43.7318 98.748L43.7188 98.761C42.3294 100.149 40.4458 100.928 38.482 100.928C36.5181 100.928 34.6345 100.149 33.2451 98.761L33.2278 98.7437L5.2518 70.7677L5.2388 70.7547C3.85089 69.3652 3.07129 67.4817 3.07129 65.5178C3.07129 63.554 3.85089 61.6704 5.2388 60.281L5.25613 60.2637L47.6795 17.8403L47.6925 17.8533C49.4951 19.656 52.4158 19.656 54.2185 17.8533L54.2315 17.8403L54.2531 17.8187C55.1184 16.9532 55.6045 15.7795 55.6045 14.5557C55.6045 13.3318 55.1184 12.1581 54.2531 11.2927L54.2401 11.2797L60.2721 5.24765L60.2851 5.23465C61.6745 3.84674 63.5581 3.06714 65.522 3.06714C67.4858 3.06714 69.3694 3.84674 70.7588 5.23465L70.7761 5.25198L98.7521 33.228L98.7651 33.241C100.153 34.6304 100.933 36.514 100.933 38.4778C100.933 40.4417 100.153 42.3252 98.7651 43.7147L98.7478 43.732L92.7158 49.764ZM63.6001 64.7357C63.8097 64.9357 64.0883 65.0472 64.378 65.0472C64.6677 65.0472 64.9462 64.9357 65.1558 64.7357L67.9161 61.9753L67.9291 61.9623C68.1316 61.7593 68.2452 61.4842 68.2452 61.1975C68.2452 60.9108 68.1316 60.6357 67.9291 60.4327L67.9118 60.4153C67.7022 60.2153 67.4237 60.1037 67.134 60.1037C66.8443 60.1037 66.5657 60.2153 66.3561 60.4153L63.5915 63.18C63.3933 63.3899 63.2833 63.6679 63.2841 63.9565C63.2849 64.2452 63.3965 64.5225 63.5958 64.7313L63.6001 64.7357ZM58.2441 70.096C58.4537 70.296 58.7323 70.4076 59.022 70.4076C59.3117 70.4076 59.5902 70.296 59.7998 70.096L62.5601 67.3357C62.9891 66.9067 62.9891 66.2047 62.5601 65.7757C62.1311 65.3467 61.4291 65.3467 61.0001 65.7757L58.2398 68.536C58.0385 68.7458 57.9261 69.0253 57.9261 69.316C57.9261 69.6067 58.0385 69.8862 58.2398 70.096H58.2441ZM43.1641 85.1717C43.3728 85.3741 43.6517 85.488 43.9424 85.4896C44.2331 85.4913 44.5132 85.3804 44.7241 85.1803L53.4558 76.4487L53.4688 76.4357C53.6712 76.2326 53.7849 75.9575 53.7849 75.6708C53.7849 75.3841 53.6712 75.109 53.4688 74.906L53.4515 74.8886C53.2419 74.6886 52.9633 74.5771 52.6736 74.5771C52.3839 74.5771 52.1054 74.6886 51.8958 74.8886L43.1598 83.6246C42.9586 83.8331 42.8455 84.111 42.8439 84.4007C42.8423 84.6904 42.9523 84.9696 43.1511 85.1803L43.1641 85.1717ZM76.7085 46.644C77.9171 46.6428 79.0759 46.1617 79.9299 45.3065C80.7839 44.4512 81.2634 43.2918 81.2628 42.0832C81.2622 40.8745 80.7817 39.7155 79.9268 38.8611C79.072 38.0066 77.9128 37.5267 76.7041 37.5267C75.4955 37.5267 74.3363 38.0066 73.4814 38.8611C72.6266 39.7155 72.146 40.8745 72.1455 42.0832C72.1449 43.2918 72.6243 44.4512 73.4784 45.3065C74.3324 46.1617 75.4911 46.6428 76.6998 46.644H76.7085ZM58.9158 56.316L58.9288 56.329C59.0294 56.4299 59.149 56.5099 59.2806 56.5645C59.4122 56.6191 59.5533 56.6473 59.6958 56.6473C59.8383 56.6473 59.9794 56.6191 60.111 56.5645C60.2426 56.5099 60.3622 56.4299 60.4628 56.329L60.4758 56.316L60.9958 55.796C61.4248 55.367 61.4248 54.665 60.9958 54.236C60.5668 53.807 59.8648 53.807 59.4358 54.236L58.9158 54.756C58.7145 54.9658 58.6021 55.2453 58.6021 55.536C58.6021 55.8267 58.7145 56.1062 58.9158 56.316ZM55.2758 59.956C55.4854 60.156 55.7639 60.2676 56.0536 60.2676C56.3433 60.2676 56.6219 60.156 56.8315 59.956L57.3515 59.436C57.7805 59.007 57.7805 58.305 57.3515 57.876C56.9225 57.447 56.2205 57.447 55.7915 57.876L55.2801 58.3873C55.0751 58.5964 54.9596 58.8771 54.958 59.1699C54.9563 59.4627 55.0731 59.7447 55.2758 59.956ZM51.6358 63.6003C51.8456 63.8016 52.1251 63.914 52.4158 63.914C52.7065 63.914 52.986 63.8016 53.1958 63.6003L53.7158 63.0803C54.1448 62.6513 54.1448 61.9493 53.7158 61.5203C53.2868 61.0913 52.5848 61.0913 52.1558 61.5203L51.6358 62.0403C51.437 62.251 51.3269 62.5302 51.3285 62.8199C51.3302 63.1096 51.4433 63.3875 51.6445 63.596L51.6358 63.6003ZM47.9958 67.2403C48.2054 67.4403 48.4839 67.5519 48.7736 67.5519C49.0633 67.5519 49.3419 67.4403 49.5515 67.2403L50.0715 66.7203L50.0845 66.7073C50.2869 66.5043 50.4006 66.2292 50.4006 65.9425C50.4006 65.6558 50.2869 65.3807 50.0845 65.1777L50.0671 65.1603C49.8572 64.9622 49.5793 64.8521 49.2906 64.853C49.0019 64.8538 48.7246 64.9653 48.5158 65.1647L47.9958 65.6847C47.7965 65.8935 47.6849 66.1708 47.6841 66.4595C47.6833 66.7481 47.7933 67.0261 47.9915 67.236L47.9958 67.2403ZM44.3558 70.876C44.5654 71.076 44.8439 71.1876 45.1336 71.1876C45.4233 71.1876 45.7019 71.076 45.9115 70.876L46.4315 70.356C46.8605 69.927 46.8605 69.225 46.4315 68.796C46.0025 68.367 45.3005 68.367 44.8715 68.796L44.3515 69.316C44.1502 69.5258 44.0378 69.8053 44.0378 70.096C44.0378 70.3867 44.1502 70.6662 44.3515 70.876H44.3558ZM40.7158 74.516C40.9254 74.716 41.2039 74.8276 41.4936 74.8276C41.7833 74.8276 42.0619 74.716 42.2715 74.516L42.7915 73.996C43.2205 73.567 43.2205 72.865 42.7915 72.436C42.3625 72.007 41.6605 72.007 41.2315 72.436L40.7115 72.956C40.5102 73.1658 40.3978 73.4453 40.3978 73.736C40.3978 74.0267 40.5145 74.3062 40.7158 74.516ZM37.0758 78.156C37.2854 78.356 37.5639 78.4676 37.8536 78.4676C38.1433 78.4676 38.4219 78.356 38.6315 78.156L39.1471 77.6403C39.5761 77.2113 39.5761 76.5093 39.1471 76.0803C38.7181 75.6513 38.0161 75.6513 37.5871 76.0803L37.0715 76.596C36.8702 76.8058 36.7578 77.0853 36.7578 77.376C36.7578 77.6667 36.8745 77.9462 37.0758 78.156ZM67.3918 37.336C68.2495 38.186 69.4082 38.6628 70.6158 38.6628C71.8234 38.6628 72.9821 38.186 73.8398 37.336L73.8701 37.3057C74.2907 36.8869 74.6244 36.3892 74.8522 35.8412C75.0799 35.2931 75.1971 34.7055 75.1971 34.112C75.1971 33.5185 75.0799 32.9309 74.8522 32.3828C74.6244 31.8347 74.2907 31.3371 73.8701 30.9183L73.8398 30.888C73.4164 30.4646 72.9138 30.1288 72.3606 29.8996C71.8074 29.6705 71.2146 29.5526 70.6158 29.5526C69.4066 29.5526 68.2469 30.0329 67.3918 30.888C66.9684 31.3114 66.6326 31.814 66.4034 32.3672C66.1743 32.9203 66.0564 33.5132 66.0564 34.112C66.0564 35.3212 66.5367 36.4809 67.3918 37.336ZM37.2318 63.752L37.2881 63.8083C37.7564 64.2786 38.364 64.585 39.0205 64.6821C39.677 64.7792 40.3473 64.6617 40.9317 64.3471C41.516 64.0326 41.9832 63.5377 42.2636 62.9362C42.5441 62.3348 42.6228 61.6588 42.4881 61.009L42.4838 60.996L41.2358 61.412C41.3144 61.6822 41.3185 61.9687 41.2475 62.241C41.1766 62.5134 41.0333 62.7615 40.8328 62.959L40.8241 62.9677C40.6487 63.1387 40.4378 63.2689 40.2063 63.3492C39.9749 63.4295 39.7286 63.4578 39.4849 63.4322C39.2413 63.4065 39.0063 63.3276 38.7966 63.2008C38.587 63.0741 38.4078 62.9028 38.2718 62.699L38.2761 62.7077C37.3401 61.7717 37.3921 60.7837 38.0161 60.1597L38.0248 60.151C38.2215 59.952 38.4681 59.8097 38.7388 59.7388C39.0094 59.6679 39.2941 59.671 39.5631 59.748L39.5718 59.7523L39.9878 58.5043C39.4996 58.3898 38.9903 58.4017 38.508 58.5389C38.0258 58.6762 37.5865 58.9342 37.2318 59.2887L37.1278 59.4013L37.1321 59.397L37.0411 59.4837C36.757 59.7689 36.5352 60.1101 36.39 60.4857C36.2448 60.8612 36.1792 61.2628 36.1976 61.6651C36.2159 62.0673 36.3177 62.4613 36.4965 62.8221C36.6753 63.1828 36.9272 63.5025 37.2361 63.7607L37.2275 63.752H37.2318ZM47.2158 58.1403L48.3598 56.9963L44.2518 56.004L43.7838 52.832L42.6918 53.924L43.2551 57.291L41.2878 55.3237L40.3041 56.3073L44.6635 60.6667L45.6471 59.683L44.5638 58.5997L44.4078 57.4037L47.2158 58.1403ZM49.9198 48.2603L51.1678 47.0123L54.6995 50.544L55.6831 49.5603L52.1471 46.0243L53.4471 44.7243L52.6151 43.8923L49.0878 47.4197L49.9198 48.2603ZM49.4518 55.796L52.4158 52.832L51.6358 52.052L49.6685 54.0193L48.6285 52.9793L50.3488 51.259L49.5038 50.414L47.7835 52.1343L46.8561 51.207L48.7801 49.283L48.0001 48.503L45.0795 51.4237L49.4518 55.796ZM36.9718 68.276L37.9555 67.2923L33.5875 62.9243L32.6038 63.908L36.9718 68.276ZM28.7645 69.4113L30.0125 68.1633L33.5485 71.6993L34.5321 70.7157L30.9961 67.1797L32.2441 65.9317L31.4121 65.0997L27.9238 68.588L28.7645 69.4113ZM58.1358 28.08L58.1401 28.0843C58.9954 28.9385 60.155 29.418 61.3637 29.4174C62.5725 29.4167 63.7315 28.9361 64.586 28.0811C65.4404 27.2261 65.9203 26.0667 65.9201 24.8579C65.9199 23.6492 65.4396 22.49 64.5849 21.6352C63.7302 20.7805 62.571 20.3002 61.3622 20.3C60.1534 20.2998 58.9941 20.7797 58.1391 21.6341C57.284 22.4886 56.8034 23.6476 56.8028 24.8564C56.8022 26.0652 57.2817 27.2247 58.1358 28.08ZM28.8078 57.408C29.0174 57.608 29.2959 57.7196 29.5856 57.7196C29.8753 57.7196 30.1539 57.608 30.3635 57.408L38.6835 49.088C39.1125 48.659 39.1125 47.957 38.6835 47.528C38.2545 47.099 37.5525 47.099 37.1235 47.528L28.8035 55.848C28.6022 56.0578 28.4898 56.3373 28.4898 56.628C28.4898 56.9187 28.6065 57.1982 28.8078 57.408ZM23.1268 57.1393C23.3364 57.3393 23.6149 57.4509 23.9046 57.4509C24.1943 57.4509 24.4729 57.3393 24.6825 57.1393L38.3585 43.4633C38.7875 43.0343 38.7875 42.3323 38.3585 41.9033C37.9295 41.4743 37.2275 41.4743 36.7985 41.9033L23.1268 55.575C22.9255 55.7848 22.8131 56.0643 22.8131 56.355C22.8131 56.6457 22.9255 56.9295 23.1268 57.1393ZM78.1948 45.019L78.1731 44.9973C77.7386 44.5612 77.4947 43.9706 77.4947 43.355C77.4947 42.7393 77.7386 42.1488 78.1731 41.7127L78.1948 41.691C78.5239 41.362 78.9432 41.1379 79.3996 41.0472C79.856 40.9564 80.3291 41.003 80.759 41.1811C81.1889 41.3593 81.5564 41.6608 81.8149 42.0478C82.0735 42.4347 82.2114 42.8896 82.2114 43.355C82.2114 43.8203 82.0735 44.2753 81.8149 44.6622C81.5564 45.0491 81.1889 45.3507 80.759 45.5288C80.3291 45.7069 79.856 45.7536 79.3996 45.6628C78.9432 45.5721 78.5239 45.348 78.1948 45.019ZM68.9388 35.763C68.6098 35.4339 68.3857 35.0146 68.295 34.5582C68.2042 34.1018 68.2509 33.6287 68.429 33.1988C68.6071 32.7688 68.9087 32.4014 69.2956 32.1429C69.6825 31.8843 70.1374 31.7463 70.6028 31.7463C71.0682 31.7463 71.5231 31.8843 71.91 32.1429C72.2969 32.4014 72.5985 32.7688 72.7766 33.1988C72.9548 33.6287 73.0014 34.1018 72.9106 34.5582C72.8199 35.0146 72.5958 35.4339 72.2668 35.763L72.2451 35.7847C71.809 36.2192 71.2184 36.4631 70.6028 36.4631C69.9872 36.4631 69.3966 36.2192 68.9605 35.7847L68.9518 35.776L68.9388 35.763ZM59.6828 26.507C59.3538 26.1779 59.1297 25.7586 59.039 25.3022C58.9482 24.8458 58.9949 24.3727 59.173 23.9428C59.3511 23.5128 59.6527 23.1454 60.0396 22.8869C60.4265 22.6283 60.8814 22.4903 61.3468 22.4903C61.8122 22.4903 62.2671 22.6283 62.654 22.8869C63.0409 23.1454 63.3425 23.5128 63.5206 23.9428C63.6987 24.3727 63.7454 24.8458 63.6546 25.3022C63.5639 25.7586 63.3398 26.1779 63.0108 26.507L62.9891 26.5287C62.553 26.9632 61.9624 27.2071 61.3468 27.2071C60.7312 27.2071 60.1406 26.9632 59.7045 26.5287L59.6958 26.52L59.6828 26.507Z" fill="#FC4545"/>
<rect x="50.3281" y="27.4293" width="17" height="34" transform="rotate(-46.3918 50.3281 27.4293)" fill="#FC4545"/>
<line x1="56.7071" y1="19.2929" x2="84.7071" y2="47.2929" stroke="white" stroke-width="2" stroke-dasharray="4 4"/>
</svg>
