<svg width="40" height="40" viewBox="0 0 40 40" fill="none" xmlns="http://www.w3.org/2000/svg">
<path d="M21.1996 3.38344C18.8153 3.2096 16.4215 3.55124 14.1811 4.38513C11.9406 5.21902 9.90597 6.5256 8.21554 8.21603C6.52511 9.90646 5.21853 11.9411 4.38464 14.1816C3.55075 16.422 3.20911 18.8158 3.38295 21.2001C3.98295 30.0168 11.6829 36.6668 20.5163 36.6668H26.6663C27.5829 36.6668 28.3329 35.9168 28.3329 35.0001C28.3329 34.0834 27.5829 33.3334 26.6663 33.3334H20.5496C14.3329 33.3334 8.63295 29.3001 7.08295 23.2834C4.59962 13.6168 13.5996 4.6001 23.2663 7.1001C29.2996 8.63344 33.3329 14.3334 33.3329 20.5501V22.3834C33.3329 23.7001 32.1496 25.0001 30.8329 25.0001C29.5163 25.0001 28.3329 23.7001 28.3329 22.3834V20.3001C28.3329 16.1168 25.3663 12.3501 21.2329 11.7668C19.9179 11.5712 18.5751 11.6927 17.3165 12.121C16.0578 12.5493 14.9197 13.2721 13.9969 14.2291C13.074 15.1862 12.3931 16.3499 12.011 17.6233C11.6288 18.8967 11.5563 20.243 11.7996 21.5501C12.0927 23.1247 12.8334 24.5815 13.9329 25.7461C15.0325 26.9107 16.4444 27.7338 17.9996 28.1168C21.0663 28.8334 23.9829 27.8501 25.8996 25.9001C27.3829 27.9334 30.3496 29.0001 33.0663 27.9168C35.2996 27.0334 36.6663 24.7501 36.6663 22.3501V20.5334C36.6663 11.6834 30.0163 3.98344 21.1996 3.38344ZM19.9996 25.0001C17.2329 25.0001 14.9996 22.7668 14.9996 20.0001C14.9996 17.2334 17.2329 15.0001 19.9996 15.0001C22.7663 15.0001 24.9996 17.2334 24.9996 20.0001C24.9996 22.7668 22.7663 25.0001 19.9996 25.0001Z" fill="#969696"/>
</svg>
