<svg width="104" height="104" viewBox="0 0 104 104" fill="none" xmlns="http://www.w3.org/2000/svg">
<path fill-rule="evenodd" clip-rule="evenodd" d="M82.333 47.6667L95.333 54.1667L82.333 60.6665V70.0732C80.9412 69.5819 79.4757 69.3316 77.9997 69.3331C76.5237 69.3315 75.0582 69.5816 73.6663 70.0728V47.6667H82.333ZM33.9265 17.3333H45.4997C56.2692 17.3333 64.9997 26.0638 64.9997 36.8333C64.9997 47.603 56.2692 56.3333 45.4997 56.3333H30.333C24.35 56.3333 19.4997 61.1835 19.4997 67.1667C19.4997 73.1498 24.35 78 30.333 78H50.2039L48.9356 76.7309L45.8715 73.6667L51.9997 67.5385L66.7946 82.3333L51.9997 97.1283L45.8715 91L48.9356 87.9359L50.2039 86.6665H30.333C19.5633 86.6665 10.833 77.9362 10.833 67.1665C10.833 56.397 19.5633 47.6665 30.333 47.6665H45.4997C51.4828 47.6665 56.333 42.8165 56.333 36.8333C56.333 30.8502 51.4828 26 45.4997 26H33.9265C34.4177 24.6081 34.6679 23.1427 34.6663 21.6667C34.6663 20.1474 34.4057 18.6885 33.9265 17.3333ZM21.6663 13C26.4527 13 30.333 16.8803 30.333 21.6667C30.333 26.4532 26.4527 30.3333 21.6663 30.3333C16.8798 30.3333 12.9997 26.4532 12.9997 21.6667C12.9997 16.8803 16.8798 13 21.6663 13ZM77.9997 91C82.7862 91 86.6663 87.1197 86.6663 82.3333C86.6663 77.5468 82.7862 73.6667 77.9997 73.6667C73.2133 73.6667 69.333 77.5468 69.333 82.3333C69.333 87.1197 73.2133 91 77.9997 91Z" fill="#FC4545"/>
</svg>
