<svg width="104" height="104" viewBox="0 0 104 104" fill="none" xmlns="http://www.w3.org/2000/svg">
<path d="M17.3333 91C16.1056 91 15.0771 90.584 14.248 89.752C13.4189 88.92 13.0029 87.8916 13 86.6667V82.3334C13 81.1056 13.416 80.0771 14.248 79.248C15.08 78.4189 16.1084 78.0029 17.3333 78C18.5582 77.9971 19.5881 78.4131 20.423 79.248C21.2579 80.0829 21.6724 81.1114 21.6667 82.3334V86.6667C21.6667 87.8945 21.2507 88.9244 20.4187 89.7564C19.5867 90.5884 18.5582 91.0029 17.3333 91ZM34.6667 91C33.4389 91 32.4104 90.584 31.5813 89.752C30.7522 88.92 30.3362 87.8916 30.3333 86.6667V62.8334C30.3333 61.6056 30.7493 60.5771 31.5813 59.748C32.4133 58.9189 33.4418 58.5029 34.6667 58.5C35.8916 58.4971 36.9214 58.9131 37.7563 59.748C38.5912 60.5829 39.0058 61.6114 39 62.8334V86.6667C39 87.8945 38.584 88.9244 37.752 89.7564C36.92 90.5884 35.8916 91.0029 34.6667 91ZM52 91C50.7722 91 49.7438 90.584 48.9147 89.752C48.0856 88.92 47.6696 87.8916 47.6667 86.6667V71.5C47.6667 70.2723 48.0827 69.2438 48.9147 68.4147C49.7467 67.5856 50.7751 67.1696 52 67.1667C53.2249 67.1638 54.2548 67.5798 55.0897 68.4147C55.9246 69.2496 56.3391 70.278 56.3333 71.5V86.6667C56.3333 87.8945 55.9173 88.9244 55.0853 89.7564C54.2533 90.5884 53.2249 91.0029 52 91ZM69.3333 91C68.1056 91 67.0771 90.584 66.248 89.752C65.4189 88.92 65.0029 87.8916 65 86.6667V65C65 63.7723 65.416 62.7438 66.248 61.9147C67.08 61.0856 68.1084 60.6696 69.3333 60.6667C70.5582 60.6638 71.5881 61.0798 72.423 61.9147C73.2579 62.7496 73.6724 63.778 73.6667 65V86.6667C73.6667 87.8945 73.2507 88.9244 72.4187 89.7564C71.5867 90.5884 70.5582 91.0029 69.3333 91ZM86.6667 91C85.4389 91 84.4104 90.584 83.5813 89.752C82.7522 88.92 82.3362 87.8916 82.3333 86.6667V47.6667C82.3333 46.4389 82.7493 45.4105 83.5813 44.5814C84.4133 43.7523 85.4418 43.3363 86.6667 43.3334C87.8916 43.3305 88.9214 43.7465 89.7563 44.5814C90.5912 45.4163 91.0058 46.4447 91 47.6667V86.6667C91 87.8945 90.584 88.9244 89.752 89.7564C88.92 90.5884 87.8916 91.0029 86.6667 91ZM60.6667 51.8917C59.5111 51.8917 58.409 51.675 57.3603 51.2417C56.3117 50.8084 55.3554 50.1945 54.4917 49.4L43.3333 38.2417L20.3667 61.2084C19.5 62.075 18.4716 62.491 17.2813 62.4564C16.0911 62.4217 15.0612 61.9696 14.1917 61.1C13.3972 60.2334 13.0188 59.2049 13.0563 58.0147C13.0939 56.8245 13.5084 55.8307 14.3 55.0334L37.1583 32.175C38.025 31.3084 38.9827 30.6771 40.0313 30.2814C41.08 29.8856 42.1807 29.6863 43.3333 29.6834C44.486 29.6805 45.6054 29.8798 46.6917 30.2814C47.7779 30.6829 48.7168 31.3141 49.5083 32.175L60.6667 43.3334L83.6333 20.3667C84.5 19.5 85.5299 19.084 86.723 19.1187C87.9161 19.1534 88.9446 19.6055 89.8083 20.475C90.6028 21.3417 90.9827 22.3716 90.948 23.5647C90.9133 24.7578 90.4973 25.7501 89.7 26.5417L66.8417 49.4C66.0472 50.1945 65.1083 50.8084 64.025 51.2417C62.9417 51.675 61.8222 51.8917 60.6667 51.8917Z" fill="#FC4545"/>
</svg>
