<svg width="40" height="40" viewBox="0 0 40 40" fill="none" xmlns="http://www.w3.org/2000/svg">
<path d="M20.0003 28.3334C19.1163 28.3334 18.2684 27.9822 17.6433 27.3571C17.0182 26.732 16.667 25.8841 16.667 25.0001C16.667 23.1501 18.1503 21.6667 20.0003 21.6667C20.8844 21.6667 21.7322 22.0179 22.3573 22.6431C22.9825 23.2682 23.3337 24.116 23.3337 25.0001C23.3337 25.8841 22.9825 26.732 22.3573 27.3571C21.7322 27.9822 20.8844 28.3334 20.0003 28.3334ZM30.0003 33.3334V16.6667H10.0003V33.3334H30.0003ZM30.0003 13.3334C30.8844 13.3334 31.7322 13.6846 32.3573 14.3097C32.9825 14.9348 33.3337 15.7827 33.3337 16.6667V33.3334C33.3337 34.2175 32.9825 35.0653 32.3573 35.6904C31.7322 36.3156 30.8844 36.6667 30.0003 36.6667H10.0003C9.11627 36.6667 8.26842 36.3156 7.6433 35.6904C7.01818 35.0653 6.66699 34.2175 6.66699 33.3334V16.6667C6.66699 14.8167 8.15033 13.3334 10.0003 13.3334H11.667V10.0001C11.667 7.78994 12.545 5.67033 14.1078 4.10752C15.6706 2.54472 17.7902 1.66675 20.0003 1.66675C21.0947 1.66675 22.1783 1.8823 23.1894 2.30109C24.2004 2.71987 25.1191 3.3337 25.8929 4.10752C26.6667 4.88135 27.2805 5.80001 27.6993 6.81105C28.1181 7.8221 28.3337 8.90573 28.3337 10.0001V13.3334H30.0003ZM20.0003 5.00008C18.6742 5.00008 17.4025 5.52687 16.4648 6.46455C15.5271 7.40223 15.0003 8.674 15.0003 10.0001V13.3334H25.0003V10.0001C25.0003 8.674 24.4735 7.40223 23.5359 6.46455C22.5982 5.52687 21.3264 5.00008 20.0003 5.00008Z" fill="#969696"/>
</svg>
