<svg width="40" height="40" viewBox="0 0 40 40" fill="none" xmlns="http://www.w3.org/2000/svg">
<path d="M28.333 3.33337C29.174 3.33311 29.984 3.65072 30.6006 4.22254C31.2172 4.79435 31.5949 5.57812 31.658 6.41671L31.6663 6.66671V33.3334C31.6666 34.1743 31.349 34.9843 30.7772 35.601C30.2054 36.2176 29.4216 36.5953 28.583 36.6584L28.333 36.6667H11.6663C10.8254 36.667 10.0154 36.3494 9.39876 35.7775C8.78213 35.2057 8.40441 34.422 8.34134 33.5834L8.33301 33.3334V6.66671C8.33274 5.82575 8.65035 5.01576 9.22217 4.39913C9.79399 3.78249 10.5777 3.40478 11.4163 3.34171L11.6663 3.33337H28.333ZM28.333 6.66671H11.6663V33.3334H28.333V6.66671ZM20.833 26.6667C21.0281 26.6666 21.2169 26.735 21.3668 26.8599C21.5166 26.9847 21.6179 27.1582 21.653 27.35L21.6663 27.5V29.1667C21.6664 29.3617 21.5981 29.5506 21.4732 29.7005C21.3483 29.8503 21.1749 29.9516 20.983 29.9867L20.833 30H19.1663C18.9713 30.0001 18.7824 29.9318 18.6326 29.8069C18.4827 29.682 18.3814 29.5086 18.3463 29.3167L18.333 29.1667V27.5C18.3329 27.305 18.4013 27.1161 18.5262 26.9663C18.651 26.8164 18.8245 26.7151 19.0163 26.68L19.1663 26.6667H20.833Z" fill="#969696"/>
</svg>
