<svg width="38" height="38" viewBox="0 0 38 38" fill="none" xmlns="http://www.w3.org/2000/svg">
<path fill-rule="evenodd" clip-rule="evenodd" d="M30.0835 17.4167L34.8335 19.7917L30.0835 22.1666V25.6037C29.5749 25.4242 29.0395 25.3327 28.5002 25.3332C27.9609 25.3326 27.4254 25.4241 26.9168 25.6035V17.4167H30.0835ZM12.3965 6.33331H16.6252C20.5602 6.33331 23.7502 9.5233 23.7502 13.4583C23.7502 17.3934 20.5602 20.5833 16.6252 20.5833H11.0835C8.89738 20.5833 7.12519 22.3555 7.12519 24.5417C7.12519 26.7278 8.89738 28.5 11.0835 28.5H18.344L17.8806 28.0363L16.761 26.9167L19.0002 24.6775L24.406 30.0833L19.0002 35.4892L16.761 33.25L17.8806 32.1304L18.344 31.6666H11.0835C7.14842 31.6666 3.9585 28.4767 3.9585 24.5416C3.9585 20.6066 7.14842 17.4166 11.0835 17.4166H16.6252C18.8113 17.4166 20.5835 15.6445 20.5835 13.4583C20.5835 11.2722 18.8113 9.5 16.6252 9.5H12.3965C12.576 8.99144 12.6674 8.45599 12.6668 7.91669C12.6668 7.36154 12.5716 6.8285 12.3965 6.33331ZM7.9168 4.75C9.6657 4.75 11.0835 6.1678 11.0835 7.91669C11.0835 9.66558 9.6657 11.0833 7.9168 11.0833C6.16791 11.0833 4.75019 9.66558 4.75019 7.91669C4.75019 6.1678 6.16791 4.75 7.9168 4.75ZM28.5002 33.25C30.2491 33.25 31.6668 31.8322 31.6668 30.0833C31.6668 28.3344 30.2491 26.9167 28.5002 26.9167C26.7513 26.9167 25.3335 28.3344 25.3335 30.0833C25.3335 31.8322 26.7513 33.25 28.5002 33.25Z" fill="url(#paint0_linear_2333_106)"/>
<defs>
<linearGradient id="paint0_linear_2333_106" x1="19.396" y1="4.75" x2="19.396" y2="35.4892" gradientUnits="userSpaceOnUse">
<stop stop-color="#106B9A"/>
<stop offset="1" stop-color="#052434"/>
</linearGradient>
</defs>
</svg>
