<svg width="40" height="40" viewBox="0 0 40 40" fill="none" xmlns="http://www.w3.org/2000/svg">
<path d="M19.9998 4.99984C17.0331 4.99984 14.133 5.87957 11.6663 7.52779C9.19955 9.17601 7.27696 11.5187 6.14164 14.2596C5.00633 17.0005 4.70928 20.0165 5.28806 22.9262C5.86684 25.8359 7.29545 28.5086 9.39324 30.6064C11.491 32.7042 14.1638 34.1328 17.0735 34.7116C19.9832 35.2904 22.9992 34.9933 25.7401 33.858C28.481 32.7227 30.8237 30.8001 32.4719 28.3334C34.1201 25.8666 34.9998 22.9666 34.9998 19.9998V18.3332H38.3332V19.9998C38.3332 30.1248 30.1248 38.3332 19.9998 38.3332C9.87484 38.3332 1.6665 30.1248 1.6665 19.9998C1.6665 9.87484 9.87484 1.6665 19.9998 1.6665C22.4965 1.6665 24.8798 2.1665 27.0532 3.07317L28.5915 3.71484L27.3082 6.7915L25.7698 6.14984C23.9413 5.38937 21.9802 4.99852 19.9998 4.99984ZM39.0232 7.49984L19.9998 26.5232L10.1432 16.6665L12.4998 14.3098L19.9998 21.8098L36.6665 5.14317L39.0232 7.49984Z" fill="#00E86C"/>
</svg>
